<svg width="22" height="22" viewBox="0 0 22 22" fill="none" xmlns="http://www.w3.org/2000/svg">
<g clip-path="url(#clip0_176_489)">
<path d="M22 11.0856C22 10.321 21.9394 9.55227 21.8101 8.80005H11.44V13.1315H17.3785C17.1321 14.5285 16.1194 15.9348 14.96 16.72L15.1808 19.36L18.48 19.36C20.5605 17.401 22 14.5078 22 11.0856Z" fill="#4285F4"/>
<path d="M11.172 22C14.1454 22 16.653 21.036 18.48 19.372L14.96 16.72C13.9716 17.384 12.6628 17.692 11.1761 17.692C8.29987 17.692 5.71502 15.776 4.84001 13.2H1.32001V16.004C3.19157 19.68 7.00355 22 11.172 22Z" fill="#34A853"/>
<path d="M4.84001 13.1999C4.33568 11.8612 4.55568 10.1387 5.06001 8.79994L5.28001 6.15994L1.32 5.93994C-0.38765 8.98574 -0.4269 12.7941 1.28075 15.8399L4.84001 13.1999Z" fill="#FBBC04"/>
<path d="M11.3842 4.30642C12.9899 4.28243 14.5417 4.86612 15.7046 5.93754L18.92 2.83121C16.884 0.984204 14.1817 -0.0312496 11.3842 0.0007332C7.12598 0.0007332 3.23188 2.26198 1.32001 5.94L5.06099 8.8C5.95071 6.22139 8.44608 4.30642 11.3842 4.30642Z" fill="#EA4335"/>
</g>
<defs>
<clipPath id="clip0_176_489">
<rect width="22" height="22" fill="white"/>
</clipPath>
</defs>
</svg>
